<?xml version="1.0" standalone="no"?>
<!DOCTYPE svg PUBLIC "-//W3C//DTD SVG 20010904//EN"
 "http://www.w3.org/TR/2001/REC-SVG-20010904/DTD/svg10.dtd">
<svg version="1.0" xmlns="http://www.w3.org/2000/svg"
 width="1225.000000pt" height="1223.000000pt" viewBox="0 0 1225.000000 1223.000000"
 preserveAspectRatio="xMidYMid meet">

<g transform="translate(0.000000,1223.000000) scale(0.100000,-0.100000)"
fill="#000000" stroke="none">
<path d="M4115 10959 c-550 -31 -842 -70 -1114 -151 -126 -37 -386 -143 -477
-194 -242 -135 -457 -371 -602 -660 -120 -240 -219 -669 -262 -1136 -18 -192
-20 -297 -20 -1065 l0 -853 1158 0 1159 0 12 58 c27 121 108 342 177 481 293
589 803 1008 1440 1183 l114 32 0 1158 0 1158 -717 -2 c-395 0 -785 -5 -868
-9z m-1105 -1149 c24 -12 123 -101 226 -202 l184 -181 185 182 c214 211 249
233 365 233 119 0 219 -63 272 -171 18 -36 23 -63 23 -126 -1 -122 -17 -148
-231 -365 l-182 -185 178 -182 c202 -206 222 -239 228 -349 4 -62 0 -81 -23
-133 -51 -112 -147 -174 -270 -175 -122 -1 -153 20 -422 287 l-122 121 -182
-179 c-212 -207 -248 -229 -364 -229 -212 0 -350 206 -275 408 18 46 48 82
204 242 l184 189 -182 185 c-215 218 -231 244 -231 365 0 92 22 148 81 209 89
92 238 115 354 56z"/>
<path d="M6632 9816 l3 -1158 110 -28 c542 -140 1017 -482 1326 -954 138 -209
227 -408 293 -649 l34 -122 1148 0 1149 0 -2 660 c-2 363 -3 660 -4 660 0 0
-2 41 -4 90 -13 340 -18 436 -31 565 -8 80 -15 152 -15 160 -1 8 -9 76 -20
150 -10 74 -19 141 -19 148 0 7 -3 11 -7 9 -5 -3 -9 16 -10 42 -1 26 -13 87
-28 137 -15 49 -37 123 -50 164 -74 249 -242 546 -386 687 -149 144 -270 220
-559 350 -169 77 -497 154 -750 178 -36 4 -123 13 -195 20 -209 23 -564 34
-1298 41 l-687 7 2 -1157z m2326 213 c43 -21 73 -44 97 -76 59 -77 65 -115 65
-404 l0 -257 283 -4 c272 -3 284 -4 329 -26 102 -50 171 -165 171 -282 0 -117
-70 -232 -171 -282 -45 -22 -58 -23 -329 -26 l-283 -4 0 -257 c0 -297 -6 -331
-71 -405 -57 -65 -126 -98 -214 -104 -99 -6 -172 23 -242 93 -78 80 -83 105
-83 416 l0 257 -277 4 c-267 3 -280 4 -330 27 -61 27 -116 84 -147 150 -30 65
-30 197 0 262 31 66 86 123 147 150 50 23 62 24 330 27 l277 3 0 264 c0 302 7
339 80 414 99 102 234 124 368 60z"/>
<path d="M1640 5313 c0 -660 8 -987 30 -1263 56 -697 212 -1166 492 -1481 205
-231 463 -386 813 -487 269 -78 392 -99 835 -142 173 -17 709 -29 1333 -29
l557 -1 0 1154 0 1154 -72 17 c-216 53 -516 184 -701 309 -344 230 -604 526
-783 891 -81 167 -122 277 -164 440 l-28 110 -1156 3 -1156 2 0 -677z m2075
-671 c50 -25 118 -98 141 -149 11 -24 17 -65 17 -113 1 -94 -25 -152 -94 -214
-114 -102 -274 -102 -388 0 -128 115 -129 305 -4 427 59 56 122 78 213 74 51
-3 88 -10 115 -25z m877 -709 c70 -32 122 -85 153 -154 23 -53 27 -71 23 -138
-6 -124 -66 -213 -177 -265 -46 -21 -47 -21 -1001 -21 -744 0 -964 3 -997 13
-61 18 -133 80 -168 143 -27 49 -30 63 -30 144 0 81 3 95 30 143 46 84 123
138 220 152 27 4 466 7 975 6 l925 -1 47 -22z m-902 -750 c55 -24 113 -83 143
-143 17 -35 22 -63 22 -125 0 -70 -4 -87 -30 -134 -35 -64 -109 -126 -167
-142 -232 -62 -433 137 -369 367 22 81 96 156 188 190 51 19 156 13 213 -13z"/>
<path d="M8390 5948 c-91 -359 -212 -620 -409 -882 -304 -404 -779 -717 -1261
-831 -41 -10 -78 -20 -82 -24 -4 -4 -8 -522 -8 -1151 l-1 -1145 633 -3 c868
-4 1332 17 1698 79 264 44 456 94 599 156 156 67 328 162 406 224 96 75 252
244 337 364 100 141 240 494 282 710 58 305 82 540 96 950 13 359 25 1533 16
1568 l-6 27 -1145 0 -1144 0 -11 -42z m1245 -2036 c63 -29 110 -73 143 -137
23 -43 27 -62 27 -140 0 -78 -4 -97 -27 -141 -33 -63 -91 -116 -154 -140 -47
-18 -89 -19 -894 -19 l-845 0 -57 28 c-103 51 -161 146 -162 267 -2 146 80
260 212 296 37 10 225 13 877 11 l830 -2 50 -23z"/>
</g>
</svg>
